<?xml version="1.0" encoding="UTF-8" standalone="no"?>
<!DOCTYPE svg PUBLIC "-//W3C//DTD SVG 1.1//EN" "http://www.w3.org/Graphics/SVG/1.1/DTD/svg11.dtd">
<svg width="100%" height="100%" viewBox="0 0 410 404" version="1.1" xmlns="http://www.w3.org/2000/svg" xmlns:xlink="http://www.w3.org/1999/xlink" xml:space="preserve" xmlns:serif="http://www.serif.com/" style="fill-rule:evenodd;clip-rule:evenodd;stroke-linejoin:round;stroke-miterlimit:2;">
    <g transform="matrix(2.52761,0,0,2.52761,37.6458,0)">
        <path d="M40.096,0L132.421,159.769L92.119,159.769L66.21,114.737L40.096,159.769L0,159.769L46.059,79.987L0,0L40.096,0ZM132.215,0L91.708,70.323C79.494,48.541 79.573,22.125 91.746,0.649L92.119,0L132.215,0Z" style="fill-rule:nonzero;"/>
    </g>
    <g transform="matrix(0.157897,0,0,0.158903,56.6868,275.216)">
        <g id="PWA">
            <g id="g8">
                <g>
                    <g id="path2-1" transform="matrix(0.680148,0,0,0.680148,333.143,90.7474)">
                        <path d="M1436.62,603.304L1493.01,460.705L1655.83,460.705L1578.56,244.39L1675.2,0.001L1952,734.933L1747.87,734.933L1700.57,603.304L1436.62,603.304Z" style="fill:white;fill-rule:nonzero;"/>
                    </g>
                    <g id="path4-4" transform="matrix(0.680148,0,0,0.680148,333.143,90.7474)">
                        <path d="M1262.47,734.935L1558.79,0.002L1362.34,0.003L1159.64,474.933L1015.5,0.004L864.499,0.004L709.731,474.933L600.585,258.517L501.812,562.819L602.096,734.935L795.427,734.935L935.284,309.025L1068.63,734.935L1262.47,734.935Z" style="fill:rgb(200,15,15);fill-rule:nonzero;"/>
                    </g>
                    <g id="path6" transform="matrix(0.680148,0,0,0.680148,333.143,90.7474)">
                        <path d="M186.476,482.643L307.479,482.643C344.133,482.643 376.772,478.552 405.396,470.37L436.689,373.962L524.148,104.516C517.484,93.954 509.876,83.967 501.324,74.557C456.419,24.852 390.719,0 304.222,0L-0,0L-0,734.933L186.476,734.933L186.476,482.643ZM346.642,169.079C364.182,186.732 372.951,210.355 372.951,239.95C372.951,269.772 365.238,293.424 349.813,310.906C332.903,330.331 301.766,340.043 256.404,340.043L186.476,340.043L186.476,142.598L256.918,142.598C299.195,142.598 329.103,151.425 346.642,169.079Z" style="fill:white;fill-rule:nonzero;"/>
                    </g>
                </g>
            </g>
        </g>
    </g>
</svg>
